<?xml version="1.0" encoding="UTF-8" standalone="no"?>
<!-- Created with Inkscape (http://www.inkscape.org/) -->

<svg
   xmlns:dc="http://purl.org/dc/elements/1.1/"
   xmlns:cc="http://creativecommons.org/ns#"
   xmlns:rdf="http://www.w3.org/1999/02/22-rdf-syntax-ns#"
   xmlns:svg="http://www.w3.org/2000/svg"
   xmlns="http://www.w3.org/2000/svg"
   xmlns:xlink="http://www.w3.org/1999/xlink"
   xmlns:sodipodi="http://sodipodi.sourceforge.net/DTD/sodipodi-0.dtd"
   xmlns:inkscape="http://www.inkscape.org/namespaces/inkscape"
   width="1320"
   height="1320"
   id="svg2"
   version="1.1"
   inkscape:version="0.48.4 r9939"
   sodipodi:docname="logo.svg">
  <defs
     id="defs4">
    <linearGradient
       id="linearGradient3889">
      <stop
         style="stop-color:#87acd2;stop-opacity:1;"
         offset="0"
         id="stop3891" />
      <stop
         id="stop3901"
         offset="0.24637261"
         style="stop-color:#467fb9;stop-opacity:0.99215686;" />
      <stop
         id="stop3899"
         offset="0.49274522"
         style="stop-color:#467fb9;stop-opacity:0.98431373;" />
      <stop
         id="stop3897"
         offset="0.7760632"
         style="stop-color:#213c58;stop-opacity:0.96862745;" />
      <stop
         style="stop-color:#467fb9;stop-opacity:0.93859649;"
         offset="1"
         id="stop3893" />
    </linearGradient>
    <linearGradient
       id="linearGradient3796">
      <stop
         style="stop-color:#000000;stop-opacity:1;"
         offset="0"
         id="stop3798" />
      <stop
         style="stop-color:#cb2929;stop-opacity:0.76754385;"
         offset="1"
         id="stop3800" />
    </linearGradient>
    <linearGradient
       id="linearGradient3774">
      <stop
         id="stop3810"
         offset="0"
         style="stop-color:#6796c5;stop-opacity:1;" />
      <stop
         id="stop3808"
         offset="0.03846153"
         style="stop-color:#264564;stop-opacity:1;" />
      <stop
         style="stop-color:#35608b;stop-opacity:1;"
         offset="0.63461542"
         id="stop3816" />
      <stop
         style="stop-color:#264564;stop-opacity:1;"
         offset="0.95192313"
         id="stop3814" />
      <stop
         id="stop3804"
         offset="1"
         style="stop-color:#7fa7ce;stop-opacity:1;" />
    </linearGradient>
    <linearGradient
       inkscape:collect="always"
       xlink:href="#linearGradient3774"
       id="linearGradient3780"
       x1="411.42856"
       y1="681.42859"
       x2="708.57141"
       y2="681.42859"
       gradientUnits="userSpaceOnUse"
       gradientTransform="translate(-294,0)" />
    <linearGradient
       inkscape:collect="always"
       xlink:href="#linearGradient3774"
       id="linearGradient3836"
       gradientUnits="userSpaceOnUse"
       gradientTransform="matrix(-1,0,0,-1,826,1364.497)"
       x1="411.42856"
       y1="681.42859"
       x2="708.57141"
       y2="681.42859" />
    <linearGradient
       inkscape:collect="always"
       xlink:href="#linearGradient3774"
       id="linearGradient3841"
       gradientUnits="userSpaceOnUse"
       gradientTransform="matrix(-1,0,0,-1,1082,1088.8592)"
       x1="411.42856"
       y1="681.42859"
       x2="708.57141"
       y2="681.42859" />
    <linearGradient
       inkscape:collect="always"
       xlink:href="#linearGradient3889"
       id="linearGradient3895"
       x1="351.37791"
       y1="712.85712"
       x2="1014.3363"
       y2="712.85712"
       gradientUnits="userSpaceOnUse" />
    <filter
       inkscape:collect="always"
       id="filter3933"
       x="-0.2028637"
       width="1.4057274"
       y="-0.1523119"
       height="1.3046238">
      <feGaussianBlur
         inkscape:collect="always"
         stdDeviation="56.03758"
         id="feGaussianBlur3935" />
    </filter>
    <filter
       inkscape:collect="always"
       id="filter4049"
       x="-0.11157503"
       width="1.2231501"
       y="-0.083771546"
       height="1.1675431">
      <feGaussianBlur
         inkscape:collect="always"
         stdDeviation="30.820669"
         id="feGaussianBlur4051" />
    </filter>
    <linearGradient
       inkscape:collect="always"
       xlink:href="#linearGradient3774"
       id="linearGradient4066"
       gradientUnits="userSpaceOnUse"
       gradientTransform="matrix(-1,0,0,-1,1082,1088.8592)"
       x1="411.42856"
       y1="681.42859"
       x2="708.57141"
       y2="681.42859" />
    <linearGradient
       inkscape:collect="always"
       xlink:href="#linearGradient3889"
       id="linearGradient4068"
       gradientUnits="userSpaceOnUse"
       x1="351.37791"
       y1="712.85712"
       x2="1014.3363"
       y2="712.85712" />
    <filter
       inkscape:collect="always"
       id="filter4100"
       x="-0.17895782"
       width="1.3579156"
       y="-0.13436315"
       height="1.2687263">
      <feGaussianBlur
         inkscape:collect="always"
         stdDeviation="49.433995"
         id="feGaussianBlur4102" />
    </filter>
    <linearGradient
       inkscape:collect="always"
       xlink:href="#linearGradient3774"
       id="linearGradient4114"
       gradientUnits="userSpaceOnUse"
       gradientTransform="matrix(-1,0,0,-1,1082,1088.8592)"
       x1="411.42856"
       y1="681.42859"
       x2="708.57141"
       y2="681.42859" />
    <linearGradient
       inkscape:collect="always"
       xlink:href="#linearGradient3889"
       id="linearGradient4116"
       gradientUnits="userSpaceOnUse"
       x1="351.37791"
       y1="712.85712"
       x2="1014.3363"
       y2="712.85712" />
    <linearGradient
       inkscape:collect="always"
       xlink:href="#linearGradient3774"
       id="linearGradient4120"
       gradientUnits="userSpaceOnUse"
       gradientTransform="matrix(-1,0,0,-1,1082,1088.8592)"
       x1="411.42856"
       y1="681.42859"
       x2="708.57141"
       y2="681.42859" />
    <linearGradient
       inkscape:collect="always"
       xlink:href="#linearGradient3889"
       id="linearGradient4122"
       gradientUnits="userSpaceOnUse"
       x1="351.37791"
       y1="712.85712"
       x2="1014.3363"
       y2="712.85712" />
  </defs>
  <sodipodi:namedview
     id="base"
     pagecolor="#ffffff"
     bordercolor="#666666"
     borderopacity="1.0"
     inkscape:pageopacity="0.0"
     inkscape:pageshadow="2"
     inkscape:zoom="0.25"
     inkscape:cx="290.28801"
     inkscape:cy="768.39629"
     inkscape:document-units="px"
     inkscape:current-layer="layer1"
     showgrid="false"
     inkscape:window-width="1276"
     inkscape:window-height="761"
     inkscape:window-x="0"
     inkscape:window-y="18"
     inkscape:window-maximized="0">
    <inkscape:grid
       type="xygrid"
       id="grid4124"
       empspacing="5"
       visible="true"
       enabled="true"
       snapvisiblegridlinesonly="true" />
  </sodipodi:namedview>
  <metadata
     id="metadata7">
    <rdf:RDF>
      <cc:Work
         rdf:about="">
        <dc:format>image/svg+xml</dc:format>
        <dc:type
           rdf:resource="http://purl.org/dc/dcmitype/StillImage" />
        <dc:title></dc:title>
      </cc:Work>
    </rdf:RDF>
  </metadata>
  <g
     inkscape:label="Ebene 1"
     inkscape:groupmode="layer"
     id="layer1"
     transform="translate(0,267.63782)">
    <path
       sodipodi:type="arc"
       style="opacity:0.21935485;fill:#2b4e72;fill-opacity:1;fill-rule:nonzero;stroke:none;filter:url(#filter4100)"
       id="path4118"
       sodipodi:cx="682.85712"
       sodipodi:cy="712.85712"
       sodipodi:rx="331.42856"
       sodipodi:ry="441.42856"
       d="m 1009.9211,641.45393 a 331.42856,441.42856 0 1 1 -8e-4,-0.006"
       transform="matrix(0.68391486,0,0,0.22870059,181.00477,643.2291)"
       sodipodi:start="6.1207167"
       sodipodi:end="12.403888"
       sodipodi:open="true" />
    <path
       sodipodi:type="arc"
       style="opacity:0.31290325;fill:#223c56;fill-opacity:1;fill-rule:nonzero;stroke:none;filter:url(#filter3933)"
       id="path3903"
       sodipodi:cx="682.85712"
       sodipodi:cy="712.85712"
       sodipodi:rx="331.42856"
       sodipodi:ry="441.42856"
       d="m 1009.9211,641.45393 a 331.42856,441.42856 0 1 1 -8e-4,-0.006"
       transform="matrix(0.85789958,0,0,0.23265759,76.283906,678.1911)"
       sodipodi:start="6.1207167"
       sodipodi:end="12.403888"
       sodipodi:open="true" />
    <g
       id="g4053"
       transform="matrix(1.914204,0,0,2.0397043,-348.12682,-491.89002)">
      <path
         inkscape:connector-curvature="0"
         id="rect3004"
         d="m 373.4375,518.36218 0,82.71875 c 0.18578,2.2412 0.80634,4.50756 1.90625,6.78125 12.03211,24.86904 75.90764,42.48392 148.0625,42.21875 7.46429,-0.0274 15.03207,-0.23456 22.625,-0.65625 71.81664,-3.98853 123.08556,-24.79576 124.53125,-48.59375 l 0,-82.46875 -297.125,0 z"
         style="fill:url(#linearGradient4120);fill-opacity:1;fill-rule:nonzero;stroke:none" />
      <path
         sodipodi:open="true"
         sodipodi:end="12.403888"
         sodipodi:start="6.1207167"
         transform="matrix(0.44817561,0,0,0.11792642,215.95307,435.7867)"
         d="M 1009.9211,641.45393 C 1039.5292,882.03766 917.09972,1109.0376 736.46728,1148.4725 555.83483,1187.9074 385.40122,1024.844 355.79315,784.2603 326.18507,543.67657 448.61452,316.67663 629.24696,277.24174 809.87761,237.80724 980.31003,400.86703 1009.9203,641.44783"
         sodipodi:ry="441.42856"
         sodipodi:rx="331.42856"
         sodipodi:cy="712.85712"
         sodipodi:cx="682.85712"
         id="path3818"
         style="fill:url(#linearGradient4122);fill-opacity:1;fill-rule:nonzero;stroke:none"
         sodipodi:type="arc" />
      <path
         sodipodi:type="arc"
         style="fill:#4075aa;fill-opacity:1;fill-rule:nonzero;stroke:none"
         id="path3843"
         sodipodi:cx="682.85712"
         sodipodi:cy="712.85712"
         sodipodi:rx="331.42856"
         sodipodi:ry="441.42856"
         d="M 1009.9211,641.45393 C 1039.5292,882.03766 917.09972,1109.0376 736.46728,1148.4725 555.83483,1187.9074 385.40122,1024.844 355.79315,784.2603 326.18507,543.67657 448.61452,316.67663 629.24696,277.24174 809.87761,237.80724 980.31003,400.86703 1009.9203,641.44783"
         transform="matrix(0.44817561,0,0,0.11406437,215.94817,436.82566)"
         sodipodi:start="6.1207167"
         sodipodi:end="12.403888"
         sodipodi:open="true" />
    </g>
    <path
       sodipodi:type="arc"
       style="opacity:0.77741933;fill:#2b4e72;fill-opacity:1;fill-rule:nonzero;stroke:none;filter:url(#filter4100)"
       id="path4027"
       sodipodi:cx="682.85712"
       sodipodi:cy="712.85712"
       sodipodi:rx="331.42856"
       sodipodi:ry="441.42856"
       d="m 1009.9211,641.45393 a 331.42856,441.42856 0 1 1 -8e-4,-0.006"
       transform="matrix(0.68391486,0,0,0.22870059,183.72718,379.57717)"
       sodipodi:start="6.1207167"
       sodipodi:end="12.403888"
       sodipodi:open="true" />
    <g
       id="g4058"
       transform="matrix(1.914204,0,0,2.0397043,-348.12682,-737.6744)">
      <path
         style="fill:url(#linearGradient4066);fill-opacity:1;fill-rule:nonzero;stroke:none"
         d="m 373.4375,518.36218 0,82.71875 c 0.18578,2.2412 0.80634,4.50756 1.90625,6.78125 12.03211,24.86904 75.90764,42.48392 148.0625,42.21875 7.46429,-0.0274 15.03207,-0.23456 22.625,-0.65625 71.81664,-3.98853 123.08556,-24.79576 124.53125,-48.59375 l 0,-82.46875 -297.125,0 z"
         id="path4060"
         inkscape:connector-curvature="0" />
      <path
         sodipodi:type="arc"
         style="fill:url(#linearGradient4068);fill-opacity:1;fill-rule:nonzero;stroke:none"
         id="path4062"
         sodipodi:cx="682.85712"
         sodipodi:cy="712.85712"
         sodipodi:rx="331.42856"
         sodipodi:ry="441.42856"
         d="M 1009.9211,641.45393 C 1039.5292,882.03766 917.09972,1109.0376 736.46728,1148.4725 555.83483,1187.9074 385.40122,1024.844 355.79315,784.2603 326.18507,543.67657 448.61452,316.67663 629.24696,277.24174 809.87761,237.80724 980.31003,400.86703 1009.9203,641.44783"
         transform="matrix(0.44817561,0,0,0.11792642,215.95307,435.7867)"
         sodipodi:start="6.1207167"
         sodipodi:end="12.403888"
         sodipodi:open="true" />
      <path
         sodipodi:open="true"
         sodipodi:end="12.403888"
         sodipodi:start="6.1207167"
         transform="matrix(0.44817561,0,0,0.11406437,215.94817,436.82566)"
         d="M 1009.9211,641.45393 C 1039.5292,882.03766 917.09972,1109.0376 736.46728,1148.4725 555.83483,1187.9074 385.40122,1024.844 355.79315,784.2603 326.18507,543.67657 448.61452,316.67663 629.24696,277.24174 809.87761,237.80724 980.31003,400.86703 1009.9203,641.44783"
         sodipodi:ry="441.42856"
         sodipodi:rx="331.42856"
         sodipodi:cy="712.85712"
         sodipodi:cx="682.85712"
         id="path4064"
         style="fill:#4075aa;fill-opacity:1;fill-rule:nonzero;stroke:none"
         sodipodi:type="arc" />
    </g>
    <path
       sodipodi:open="true"
       sodipodi:end="12.403888"
       sodipodi:start="6.1207167"
       transform="matrix(0.68391486,0,0,0.22870059,182.91898,131.2633)"
       d="m 1009.9211,641.45393 a 331.42856,441.42856 0 1 1 -8e-4,-0.006"
       sodipodi:ry="441.42856"
       sodipodi:rx="331.42856"
       sodipodi:cy="712.85712"
       sodipodi:cx="682.85712"
       id="path4104"
       style="opacity:0.77741933;fill:#2b4e72;fill-opacity:1;fill-rule:nonzero;stroke:none;filter:url(#filter4100)"
       sodipodi:type="arc" />
    <g
       transform="matrix(1.914204,0,0,2.0397043,-348.12682,-991.51718)"
       id="g4106">
      <path
         inkscape:connector-curvature="0"
         id="path4108"
         d="m 373.4375,518.36218 0,82.71875 c 0.18578,2.2412 0.80634,4.50756 1.90625,6.78125 12.03211,24.86904 75.90764,42.48392 148.0625,42.21875 7.46429,-0.0274 15.03207,-0.23456 22.625,-0.65625 71.81664,-3.98853 123.08556,-24.79576 124.53125,-48.59375 l 0,-82.46875 -297.125,0 z"
         style="fill:url(#linearGradient4114);fill-opacity:1;fill-rule:nonzero;stroke:none" />
      <path
         sodipodi:open="true"
         sodipodi:end="12.403888"
         sodipodi:start="6.1207167"
         transform="matrix(0.44817561,0,0,0.11792642,215.95307,435.7867)"
         d="M 1009.9211,641.45393 C 1039.5292,882.03766 917.09972,1109.0376 736.46728,1148.4725 555.83483,1187.9074 385.40122,1024.844 355.79315,784.2603 326.18507,543.67657 448.61452,316.67663 629.24696,277.24174 809.87761,237.80724 980.31003,400.86703 1009.9203,641.44783"
         sodipodi:ry="441.42856"
         sodipodi:rx="331.42856"
         sodipodi:cy="712.85712"
         sodipodi:cx="682.85712"
         id="path4110"
         style="fill:url(#linearGradient4116);fill-opacity:1;fill-rule:nonzero;stroke:none"
         sodipodi:type="arc" />
      <path
         sodipodi:type="arc"
         style="fill:#4075aa;fill-opacity:1;fill-rule:nonzero;stroke:none"
         id="path4112"
         sodipodi:cx="682.85712"
         sodipodi:cy="712.85712"
         sodipodi:rx="331.42856"
         sodipodi:ry="441.42856"
         d="M 1009.9211,641.45393 C 1039.5292,882.03766 917.09972,1109.0376 736.46728,1148.4725 555.83483,1187.9074 385.40122,1024.844 355.79315,784.2603 326.18507,543.67657 448.61452,316.67663 629.24696,277.24174 809.87761,237.80724 980.31003,400.86703 1009.9203,641.44783"
         transform="matrix(0.44817561,0,0,0.11406437,215.94817,436.82566)"
         sodipodi:start="6.1207167"
         sodipodi:end="12.403888"
         sodipodi:open="true" />
    </g>
  </g>
</svg>
